<?xml version="1.0" encoding="utf-8"?>
<!-- Generator: Adobe Illustrator 26.5.0, SVG Export Plug-In . SVG Version: 6.00 Build 0)  -->
<svg width="64px" height="64px" version="1.1" xmlns="http://www.w3.org/2000/svg" x="0px" y="0px"
     viewBox="0 0 38.4 38.4" style="enable-background:new 0 0 38.4 38.4;" xml:space="preserve">
<style type="text/css">
	.st0{fill:none;}
	.st1{fill:#01D468;}
</style>
    <g id="Ebene_2">
	<rect x="0" y="-0.3" class="st0" width="38.4" height="38.4"/>
</g>
    <g id="Icon">
	<path class="st1" d="M38.1,7.5c-0.2-0.5-0.8-1.7-2.8-1.7H2.5c-1.2,0-2.1,0.8-2.3,1.9c-0.1,0.8,0.3,2,1.6,2.5l11.8,6
		c-0.3,0.3-9.4,12.4-9.4,12.4c-0.6,0.7-0.7,1.7-0.3,2.6c0.4,0.8,1.3,1.4,2.2,1.4c0.5,0,0.9-0.1,1.3-0.3c0.1,0,0.2-0.1,0.2-0.1
		L37,10.3C38.5,9.3,38.2,7.9,38.1,7.5z M16.5,12.4l-1.1,1.5L5.2,8.7c0,0,6.6,0,6.8,0c5.9,0,5.3,2.2,5.3,2.2
		C17.2,11.4,16.7,12.1,16.5,12.4z M18.7,14.3c0.5-0.7,1.2-1.5,1.5-2.4c0.4-1.2,0.3-2.3-0.4-3.2h14.5L8.5,27.8L18.7,14.3z"/>
</g>
</svg>
